<svg xmlns="http://www.w3.org/2000/svg" xmlns:xlink="http://www.w3.org/1999/xlink" width="1920" height="1076" viewBox="0 0 1920 1076"><defs><style>.a{opacity:0.87;}.b,.c{fill:url(#a);}.c{opacity:0.6;}.d{fill:#fff;opacity:0.09;}</style><linearGradient id="a" x1="1.112" y1="-0.168" x2="0" y2="1" gradientUnits="objectBoundingBox"><stop offset="0" stop-color="#7feeff"/><stop offset="0.089" stop-color="#7feeff"/><stop offset="0.855" stop-color="#004acd"/><stop offset="1" stop-color="#004acd"/></linearGradient></defs><g class="a"><rect class="b" width="1920" height="1076"/><rect class="c" width="1920" height="1076"/><path class="d" d="M187.756,79.752a17.458,17.458,0,0,0-4.267,34.394V328.994h8.533V114.146a17.457,17.457,0,0,0-4.267-34.394Zm0,26.445a8.956,8.956,0,1,1,8.96-8.956A8.968,8.968,0,0,1,187.756,106.2Z" transform="translate(556.206 183.502)"/><path class="d" d="M204.637,97.462a17.459,17.459,0,0,0-4.267,34.4V271.141H208.9V131.86a17.459,17.459,0,0,0-4.267-34.4Zm0,26.453a8.96,8.96,0,1,1,8.96-8.96A8.97,8.97,0,0,1,204.637,123.915Z" transform="translate(611.337 230.467)"/><path class="d" d="M221.515,79.752a17.457,17.457,0,0,0-4.267,34.394V328.994h8.533V114.146a17.457,17.457,0,0,0-4.267-34.394Zm0,26.445a8.956,8.956,0,1,1,8.96-8.956A8.969,8.969,0,0,1,221.515,106.2Z" transform="translate(666.472 183.502)"/><path class="d" d="M238.393,97.462a17.459,17.459,0,0,0-4.267,34.4V271.141h8.533V131.86a17.459,17.459,0,0,0-4.267-34.4Zm0,26.453a8.96,8.96,0,1,1,8.96-8.96A8.97,8.97,0,0,1,238.393,123.915Z" transform="translate(721.606 230.467)"/><path class="d" d="M255.271,79.752A17.457,17.457,0,0,0,251,114.146V328.994h8.533V114.146a17.458,17.458,0,0,0-4.267-34.394Zm0,26.445a8.956,8.956,0,1,1,8.956-8.956A8.969,8.969,0,0,1,255.271,106.2Z" transform="translate(776.741 183.502)"/><path class="d" d="M272.149,97.462a17.459,17.459,0,0,0-4.267,34.4V271.141h8.533V131.86a17.46,17.46,0,0,0-4.267-34.4Zm0,26.453a8.96,8.96,0,1,1,8.956-8.96A8.97,8.97,0,0,1,272.149,123.915Z" transform="translate(831.876 230.467)"/><path class="d" d="M289.027,79.752a17.457,17.457,0,0,0-4.267,34.394V328.994h8.533V114.146a17.458,17.458,0,0,0-4.267-34.394Zm0,26.445a8.956,8.956,0,1,1,8.956-8.956A8.969,8.969,0,0,1,289.027,106.2Z" transform="translate(887.011 183.502)"/><path class="d" d="M271.555,267.462H132.274a17.493,17.493,0,1,0,0,8.533H271.555ZM115.369,280.688a8.958,8.958,0,1,1,8.96-8.96A8.969,8.969,0,0,1,115.369,280.688Z" transform="translate(319.741 588.626)"/><path class="d" d="M329.411,250.583H114.558a17.485,17.485,0,1,0,0,8.533H329.411ZM97.658,263.81a8.958,8.958,0,1,1,8.96-8.96A8.969,8.969,0,0,1,97.658,263.81Z" transform="translate(261.885 584.43)"/><path class="d" d="M271.555,233.71H132.274a17.489,17.489,0,1,0,0,8.533H271.555ZM115.369,246.932a8.958,8.958,0,1,1,8.96-8.956A8.968,8.968,0,0,1,115.369,246.932Z" transform="translate(319.741 542.873)"/><path class="d" d="M329.411,216.832H114.563a17.489,17.489,0,1,0,0,8.533H329.411ZM97.658,230.054a8.958,8.958,0,1,1,8.96-8.956A8.968,8.968,0,0,1,97.658,230.054Z" transform="translate(261.885 501.316)"/><path class="d" d="M271.555,199.954H132.274a17.489,17.489,0,1,0,0,8.533H271.555ZM115.369,213.176a8.958,8.958,0,1,1,8.96-8.956A8.968,8.968,0,0,1,115.369,213.176Z" transform="translate(319.741 459.759)"/><path class="d" d="M329.411,183.076H114.563a17.489,17.489,0,1,0,0,8.533H329.411ZM97.658,196.3a8.958,8.958,0,1,1,8.96-8.956A8.968,8.968,0,0,1,97.658,196.3Z" transform="translate(261.885 418.202)"/><path class="d" d="M311.415,292.876H526.259a17.494,17.494,0,1,0,0-8.533H311.415Zm231.748-13.227a8.958,8.958,0,1,1-8.956,8.96A8.967,8.967,0,0,1,543.163,279.649Z" transform="translate(1017.289 643.758)"/><path class="d" d="M467.6,289.221a17.491,17.491,0,1,0-16.9-21.76H311.415v8.533H450.7A17.474,17.474,0,0,0,467.6,289.221Zm0-26.449a8.958,8.958,0,1,1-8.956,8.956A8.966,8.966,0,0,1,467.6,262.772Z" transform="translate(1017.289 588.626)"/><path class="d" d="M543.163,237.361a17.487,17.487,0,0,0-16.9,13.222H311.415v8.533H526.259a17.466,17.466,0,1,0,16.9-21.756Zm0,26.449a8.958,8.958,0,1,1,8.96-8.96A8.966,8.966,0,0,1,543.163,263.81Z" transform="translate(1017.289 584.43)"/><path class="d" d="M467.6,255.466a17.491,17.491,0,1,0-16.9-21.756H311.415v8.533H450.7A17.475,17.475,0,0,0,467.6,255.466Zm0-26.449a8.958,8.958,0,1,1-8.956,8.96A8.967,8.967,0,0,1,467.6,229.016Z" transform="translate(1017.289 542.873)"/><path class="d" d="M543.163,203.605a17.478,17.478,0,0,0-16.9,13.227H311.415v8.533H526.259a17.467,17.467,0,1,0,16.9-21.76Zm0,26.449a8.958,8.958,0,1,1,8.96-8.956A8.965,8.965,0,0,1,543.163,230.054Z" transform="translate(1017.289 501.316)"/><path class="d" d="M467.6,186.727a17.47,17.47,0,0,0-16.9,13.227H311.415v8.533H450.7a17.465,17.465,0,1,0,16.9-21.76Zm0,26.449a8.958,8.958,0,1,1,8.96-8.956A8.965,8.965,0,0,1,467.6,213.176Z" transform="translate(1017.289 459.759)"/><path class="d" d="M526.259,183.076H311.415v8.533H526.259a17.493,17.493,0,1,0,0-8.533Zm16.9-4.693a8.958,8.958,0,1,1-8.956,8.96A8.967,8.967,0,0,1,543.163,178.382Z" transform="translate(1017.289 418.202)"/><path class="d" d="M336.689,235.861v126.2a17.067,17.067,0,1,0,8.533,0V239.394l75.264-75.268,91.055,91.055v88.512a17.067,17.067,0,1,0,8.533,0V251.648l-95.322-95.322V0H416.22V156.326Z" transform="translate(1058.037)"/><path class="d" d="M597.389,201.854H417.207l-31.3-31.3V100.278a17.067,17.067,0,1,0-8.533,0v73.809l36.3,36.3H588.855l-92.344,92.348h-125.6a17.067,17.067,0,1,0,0,8.533H500.045L600.921,210.388H817.886v-8.533h-220.5Z" transform="translate(1102.114 153.085)"/><path class="d" d="M419.136,38.246v69.905a17.067,17.067,0,1,0,8.533,0V46.779H592.636V38.246Z" transform="translate(1327.364 124.937)"/><path class="d" d="M182.383,149.054v71.885a17.067,17.067,0,1,0,8.533,0V153.321H378.534L435.012,209.8a16.88,16.88,0,0,0-2.411,8.619,17.067,17.067,0,1,0,17.067-17.067,16.871,16.871,0,0,0-8.619,2.415l-58.982-58.978H190.916V39.3H378.534l58.283,58.278a17.238,17.238,0,1,0,6.033-6.033L382.067,30.765H0V39.3H182.383Z" transform="translate(0 100.499)"/><path class="d" d="M226.6,198.047H379.708a17.067,17.067,0,1,0,0-8.533H235.132l74.607-74.607H433.2a17.067,17.067,0,1,0,0-8.533h-127l-83.14,83.14H0v8.533H226.6Z" transform="translate(0 225.236)"/><path class="d" d="M87.471,400.739l49.186-49.186a16.833,16.833,0,0,0,8.619,2.419,17.244,17.244,0,1,0-14.656-8.448L78.938,397.207V565.232L187.375,673.665V875.193h8.533V670.132L87.471,561.7Z" transform="translate(973.864 172.919)"/><path class="d" d="M182.383,485.075,287.915,590.611v75.733a17.067,17.067,0,1,0,8.533,0V587.078L190.916,481.542v-158.7H0v8.533H182.383Z" transform="translate(716 182.719)"/><path class="d" d="M444.617,285.632a17.254,17.254,0,1,0,8.448-14.652l-58.044-58.044V104.785l57.062-57.062a17.269,17.269,0,1,0-6.033-6.037l-59.563,59.563V216.469l60.544,60.544A16.894,16.894,0,0,0,444.617,285.632Z" transform="translate(1262.527 52.267)"/><path class="d" d="M161.527,429.126a17.255,17.255,0,1,0-14.652-8.448L93.866,473.687,39.747,419.568a16.9,16.9,0,0,0,2.415-8.619A17.067,17.067,0,1,0,25.1,428.016a16.845,16.845,0,0,0,8.619-2.419L89.6,481.486V633.316h8.533V481.486l54.775-54.78A16.856,16.856,0,0,0,161.527,429.126Z" transform="translate(742.228 414.797)"/><path class="d" d="M187.051,246.673h94.891a17.067,17.067,0,1,0,0-8.533H199.117l79.646-79.65H407.6a17.067,17.067,0,1,0,0-8.533H275.23l-86.413,86.417L113.024,160.58H0v8.533H109.491Z" transform="translate(0 329.646)"/><path class="d" d="M131.813,393.314V260.561a17.067,17.067,0,1,0-8.533,0v129.22L56.656,456.4v75.541a17.067,17.067,0,1,0,8.533,0V459.938Z" transform="translate(143.263 499.74)"/><path class="d" d="M89.114,392.509l31.765,31.765a17.238,17.238,0,1,0,6.033-6.033L97.647,388.976V265.691H0v8.533H89.114Z" transform="translate(0 626.036)"/><path class="d" d="M321.843,326.355a16.873,16.873,0,0,0,8.619,2.415A17.067,17.067,0,1,0,313.4,311.7a16.883,16.883,0,0,0,2.415,8.619l-59.443,59.443H0V388.3H259.9Z" transform="translate(716 208.57)"/><path class="d" d="M187.364,484.087a17.058,17.058,0,1,0,8.533,0V349.862l-49.779-49.779V145.83l61.047,61.043H336.843a17.067,17.067,0,1,0,0-8.533H210.7l-64.58-64.576V0h-8.533V303.616L187.364,353.4Z" transform="translate(449.444)"/><path class="d" d="M266.5,53.45a17.254,17.254,0,1,0-6.033,6.033l49.6,49.6H490.206l46.72,46.72a16.868,16.868,0,0,0-2.415,8.614,17.254,17.254,0,1,0,8.448-14.652l-49.216-49.216H313.6Z" transform="translate(766.941 90.699)"/><path class="d" d="M404.235,201.3a16.88,16.88,0,0,0-8.614-2.415,17.067,17.067,0,1,0,17.067,17.067,16.871,16.871,0,0,0-2.415-8.619l56.154-56.158H683.39v-8.533h-220.5Z" transform="translate(1236.61 346.044)"/><path class="d" d="M457.967,182.715,391.01,249.672a16.894,16.894,0,0,0-8.619-2.415,17.255,17.255,0,1,0,14.652,8.448L461.5,191.248H619.862l52.817-52.826a17.264,17.264,0,1,0-6.029-6.033l-50.321,50.325Z" transform="translate(1193.395 252.237)"/><path class="d" d="M380.614,266.6l38.805,38.8A16.9,16.9,0,0,0,417,314.022a17.067,17.067,0,1,0,17.067-17.067,16.9,16.9,0,0,0-8.619,2.415l-41.3-41.3H316.106V108.727a17.062,17.062,0,1,0-8.533,0V266.6Z" transform="translate(962.938 172.562)"/><path class="d" d="M462.559,310.514l-43-43a17.238,17.238,0,1,0-6.033,6.033l40.5,40.5V433.654H653.053v-8.533H462.559Z" transform="translate(1266.947 548.073)"/><path class="d" d="M480.154,191.356a17.067,17.067,0,1,0-8.533,0v78.2l-57.758,57.762a16.9,16.9,0,0,0-8.619-2.415,17.248,17.248,0,1,0,14.652,8.444l57.758-57.758h174.3v-8.533h-171.8Z" transform="translate(1268.048 369.694)"/><path class="d" d="M433.269,220.772a17.067,17.067,0,1,0-21.333,16.461V347.667l33.707,33.707a16.879,16.879,0,0,0-2.411,8.619A17.067,17.067,0,1,0,460.3,372.925a16.886,16.886,0,0,0-8.623,2.415l-31.207-31.206v-106.9A17.028,17.028,0,0,0,433.269,220.772Z" transform="translate(1303.844 476.806)"/><path class="d" d="M437.635,194a17.067,17.067,0,0,0,0,34.133,16.887,16.887,0,0,0,8.619-2.419l46.033,46.033v156.9l-42.231,42.227a16.871,16.871,0,0,0-8.619-2.415,17.244,17.244,0,1,0,14.656,8.448l44.728-44.727V268.216l-48.533-48.533a16.868,16.868,0,0,0,2.415-8.614A17.065,17.065,0,0,0,437.635,194Z" transform="translate(1373.855 391.852)"/><path class="d" d="M196.463,543.013a16.894,16.894,0,0,0-8.619,2.415l-69.12-69.12v-98.18a17.067,17.067,0,1,0-8.533,0V479.841l71.62,71.62a16.894,16.894,0,0,0-2.415,8.619,17.067,17.067,0,1,0,17.067-17.067Z" transform="translate(1034.144 308.419)"/><path class="d" d="M102.825,572.12a17.067,17.067,0,0,0,0-34.133,16.845,16.845,0,0,0-8.619,2.419L37.421,483.62V366.138a17.067,17.067,0,1,0-8.533,0V487.153l59.285,59.285a16.867,16.867,0,0,0-2.415,8.614A17.068,17.068,0,0,0,102.825,572.12Z" transform="translate(768.554 279.507)"/><path class="d" d="M139.338,522.165a17.067,17.067,0,1,0,0-34.133,16.871,16.871,0,0,0-8.619,2.415L90.484,450.212V235.393L35.747,180.656a16.9,16.9,0,0,0,2.415-8.619,17.254,17.254,0,1,0-8.448,14.652l52.237,52.237V453.749l42.735,42.731a16.883,16.883,0,0,0-2.415,8.619A17.067,17.067,0,0,0,139.338,522.165Z" transform="translate(13.162 338.005)"/><path class="d" d="M175.589,430.629A17.067,17.067,0,1,0,159.124,409.3H99.612V226.226L47.806,174.42a16.883,16.883,0,0,0,2.415-8.619,17.067,17.067,0,1,0-17.067,17.067,16.883,16.883,0,0,0,8.619-2.415l49.306,49.306v188.07h68.045A17.029,17.029,0,0,0,175.589,430.629Z" transform="translate(52.554 337.698)"/><path class="d" d="M49.471,299.765A17.067,17.067,0,1,0,70.8,283.3V200.378a17.067,17.067,0,1,0-8.533,0V283.3A17.02,17.02,0,0,0,49.471,299.765Z" transform="translate(161.605 397.601)"/><path class="d" d="M158.516,87.546H90.027a17.067,17.067,0,1,0,0,8.533h68.489a17.067,17.067,0,1,0,0-8.533Z" transform="translate(184.566 184.079)"/><path class="d" d="M76.439,314.433a17.067,17.067,0,1,0,21.333-16.461v-65.6l-64.41-64.414V73.972a17.067,17.067,0,1,0-8.533,0V171.5l64.41,64.414v62.063A17.028,17.028,0,0,0,76.439,314.433Z" transform="translate(39.295 132.12)"/><path class="d" d="M52.067,49.28a17.029,17.029,0,0,0,16.465-12.8H297.14L361.857,101.2a16.9,16.9,0,0,0-2.415,8.619,17.067,17.067,0,1,0,17.067-17.067,16.883,16.883,0,0,0-8.619,2.415L300.673,27.947H68.532A17.041,17.041,0,1,0,52.067,49.28Z" transform="translate(114.333 49.48)"/><path class="d" d="M166.416,46.133a16.9,16.9,0,0,0,8.619-2.415l54.276,54.276H411.574l37.67,37.67a17.254,17.254,0,1,0,6.033-6.033L415.107,89.461H232.843L181.067,37.685a16.894,16.894,0,0,0,2.415-8.619,17.067,17.067,0,1,0-17.067,17.067Z" transform="translate(487.874 39.2)"/><path class="d" d="M214.743,85.333a17.029,17.029,0,0,0,16.465-12.8H581.6V0h-8.533V64H231.208a17.041,17.041,0,1,0-16.465,21.333Z" transform="translate(645.742)"/><path class="d" d="M315.678,156.582a17.067,17.067,0,0,0,17.067-17.067,16.883,16.883,0,0,0-2.415-8.619L369.86,91.366l39.275,39.27a17.238,17.238,0,1,0,6.033-6.033L374.127,83.567V0h-8.533V83.567l-41.3,41.3a16.883,16.883,0,0,0-8.619-2.415,17.067,17.067,0,0,0,0,34.133Z" transform="translate(975.462)"/></g></svg>